HIERARCHY
ROOT hip
{
  OFFSET 51.272 85.1633 45.9497
  CHANNELS 6 Xposition Yposition Zposition Zrotation Xrotation Yrotation
  JOINT abdomen
  {
    OFFSET 0 20.6881 -0.73152
    CHANNELS 3 Zrotation Xrotation Yrotation
    JOINT chest
    {
      OFFSET 0 11.7043 -0.48768
      CHANNELS 3 Zrotation Xrotation Yrotation
      JOINT neck
      {
        OFFSET 0 22.1894 -2.19456
        CHANNELS 3 Zrotation Xrotation Yrotation
        JOINT head
        {
          OFFSET -0.24384 7.07133 1.2192
          CHANNELS 3 Zrotation Xrotation Yrotation
          JOINT leftEye
          {
            OFFSET 4.14528 8.04674 8.04672
            CHANNELS 3 Zrotation Xrotation Yrotation
            End Site
            {
              OFFSET 1 0 0
            }
          }
          JOINT rightEye
          {
            OFFSET -3.6576 8.04674 8.04672
            CHANNELS 3 Zrotation Xrotation Yrotation
            End Site
            {
              OFFSET 1 0 0
            }
          }
        }
      }
      JOINT rCollar
      {
        OFFSET -2.68224 19.2634 -4.8768
        CHANNELS 3 Zrotation Xrotation Yrotation
        JOINT rShldr
        {
          OFFSET -8.77824 -1.95073 1.46304
          CHANNELS 3 Zrotation Xrotation Yrotation
          JOINT rForeArm
          {
            OFFSET -28.1742 -1.7115 0.48768
            CHANNELS 3 Zrotation Xrotation Yrotation
            JOINT rHand
            {
              OFFSET -22.5879 0.773209 7.07136
              CHANNELS 3 Zrotation Xrotation Yrotation
              JOINT rThumb1
              {
                OFFSET -1.2192 -0.487915 3.41376
                CHANNELS 3 Zrotation Xrotation Yrotation
                JOINT rThumb2
                {
                  OFFSET -3.37035 -0.52449 3.41376
                  CHANNELS 3 Zrotation Xrotation Yrotation
                  End Site
                  {
                    OFFSET -1.78271 -1.18214 1.43049
                  }
                }
              }
              JOINT rIndex1
              {
                OFFSET -7.75947 0.938293 5.60832
                CHANNELS 3 Zrotation Xrotation Yrotation
                JOINT rIndex2
                {
                  OFFSET -2.54057 -0.884171 1.56538
                  CHANNELS 3 Zrotation Xrotation Yrotation
                  End Site
                  {
                    OFFSET -1.62519 -0.234802 1.16502
                  }
                }
              }
              JOINT rMid1
              {
                OFFSET -8.24714 1.18213 3.41376
                CHANNELS 3 Zrotation Xrotation Yrotation
                JOINT rMid2
                {
                  OFFSET -3.10165 -0.590103 1.0647
                  CHANNELS 3 Zrotation Xrotation Yrotation
                  End Site
                  {
                    OFFSET -2.48547 -0.328903 0.83742
                  }
                }
              }
              JOINT rRing1
              {
                OFFSET -8.82822 0.546677 1.51678
                CHANNELS 3 Zrotation Xrotation Yrotation
                JOINT rRing2
                {
                  OFFSET -2.60934 -0.819778 -0.0198488
                  CHANNELS 3 Zrotation Xrotation Yrotation
                  End Site
                  {
                    OFFSET -2.33842 -0.294052 0.168128
                  }
                }
              }
              JOINT rPinky1
              {
                OFFSET -8.27202 -0.0477905 -0.4584
                CHANNELS 3 Zrotation Xrotation Yrotation
                JOINT rPinky2
                {
                  OFFSET -1.82734 -0.647385 -0.700984
                  CHANNELS 3 Zrotation Xrotation Yrotation
                  End Site
                  {
                    OFFSET -1.69225 -0.51767 -0.607171
                  }
                }
              }
            }
          }
        }
      }
      JOINT lCollar
      {
        OFFSET 2.68224 19.2634 -4.8768
        CHANNELS 3 Zrotation Xrotation Yrotation
        JOINT lShldr
        {
          OFFSET 8.77824 -1.95073 1.46304
          CHANNELS 3 Zrotation Xrotation Yrotation
          JOINT lForeArm
          {
            OFFSET 28.1742 -1.7115 0.48768
            CHANNELS 3 Zrotation Xrotation Yrotation
            JOINT lHand
            {
              OFFSET 22.5879 0.773209 7.07136
              CHANNELS 3 Zrotation Xrotation Yrotation
              JOINT lThumb1
              {
                OFFSET 1.2192 -0.487915 3.41376
                CHANNELS 3 Zrotation Xrotation Yrotation
                JOINT lThumb2
                {
                  OFFSET 3.37035 -0.52449 3.41376
                  CHANNELS 3 Zrotation Xrotation Yrotation
                  End Site
                  {
                    OFFSET 1.78271 -1.18214 1.43049
                  }
                }
              }
              JOINT lIndex1
              {
                OFFSET 7.75947 0.938293 5.60832
                CHANNELS 3 Zrotation Xrotation Yrotation
                JOINT lIndex2
                {
                  OFFSET 2.54057 -0.884171 1.56538
                  CHANNELS 3 Zrotation Xrotation Yrotation
                  End Site
                  {
                    OFFSET 1.62519 -0.234802 1.16502
                  }
                }
              }
              JOINT lMid1
              {
                OFFSET 8.24714 1.18213 3.41376
                CHANNELS 3 Zrotation Xrotation Yrotation
                JOINT lMid2
                {
                  OFFSET 3.10165 -0.590103 1.0647
                  CHANNELS 3 Zrotation Xrotation Yrotation
                  End Site
                  {
                    OFFSET 2.48547 -0.328903 0.83742
                  }
                }
              }
              JOINT lRing1
              {
                OFFSET 8.82822 0.546677 1.51678
                CHANNELS 3 Zrotation Xrotation Yrotation
                JOINT lRing2
                {
                  OFFSET 2.60934 -0.819778 -0.0198488
                  CHANNELS 3 Zrotation Xrotation Yrotation
                  End Site
                  {
                    OFFSET 2.33842 -0.294052 0.168128
                  }
                }
              }
              JOINT lPinky1
              {
                OFFSET 8.27202 -0.0477905 -0.4584
                CHANNELS 3 Zrotation Xrotation Yrotation
                JOINT lPinky2
                {
                  OFFSET 1.82734 -0.647385 -0.700984
                  CHANNELS 3 Zrotation Xrotation Yrotation
                  End Site
                  {
                    OFFSET 1.69225 -0.51767 -0.607171
                  }
                }
              }
            }
          }
        }
      }
    }
  }
  JOINT rButtock
  {
    OFFSET -8.77824 4.35084 1.2192
    CHANNELS 3 Zrotation Xrotation Yrotation
    JOINT rThigh
    {
      OFFSET 0 -1.70687 -2.19456
      CHANNELS 3 Zrotation Xrotation Yrotation
      JOINT rShin
      {
        OFFSET 0 -36.8199 0.73152
        CHANNELS 3 Zrotation Xrotation Yrotation
        JOINT rFoot
        {
          OFFSET 0.73152 -45.1104 -5.12064
          CHANNELS 3 Zrotation Xrotation Yrotation
          End Site
          {
            OFFSET -1.1221 -3.69964 12.103
          }
        }
      }
    }
  }
  JOINT lButtock
  {
    OFFSET 8.77824 4.35084 1.2192
    CHANNELS 3 Zrotation Xrotation Yrotation
    JOINT lThigh
    {
      OFFSET 0 -1.70687 -2.19456
      CHANNELS 3 Zrotation Xrotation Yrotation
      JOINT lShin
      {
        OFFSET 0 -36.8199 0.73152
        CHANNELS 3 Zrotation Xrotation Yrotation
        JOINT lFoot
        {
          OFFSET -0.73152 -45.1104 -5.12064
          CHANNELS 3 Zrotation Xrotation Yrotation
          End Site
          {
            OFFSET 1.1221 -3.69964 12.103
          }
        }
      }
    }
  }
}
MOTION
Frames:	8
Frame Time:	0.00833333
47.6986 53.0655 147.162 -1.08836 -31.9914 -176.781 -5.80723 65.5156 5.7381 1.66059 -18.9318 2.71262 -6.52683 -0.21031 -5.81854 11.6552 -51.1887 0.0669739 -0 0 0 -0 0 0 -7.80929e-014 -3.92796e-013 -1.01877e-014 7.70947 18.1931 37.5264 -27.0423 -26.4801 61.6458 -0.27013 14.6355 2.10329 2.08489e-010 2.20606e-009 -1.577e-009 3.45679e-010 3.80497e-009 -2.72588e-009 2.08487e-010 2.20605e-009 -1.577e-009 7.73091 5.47488 0.417314 2.08479e-010 2.20606e-009 -1.57699e-009 2.90554 0.965183 0.102902 2.08491e-010 2.20605e-009 -1.577e-009 10.2786 0.731801 0.0259123 2.08487e-010 2.20607e-009 -1.577e-009 2.22167 -0.733487 -0.20892 -7.81569e-014 -3.92801e-013 -1.03865e-014 -26.1831 14.1122 -36.7871 28.0985 -31.2354 -69.2248 2.68756 -41.3708 7.11008 1.49903e-009 2.50578e-009 3.59495e-010 2.56824e-009 4.3446e-009 6.7188e-010 1.49903e-009 2.50579e-009 3.59498e-010 -7.73091 5.47488 -0.417314 1.49904e-009 2.50579e-009 3.59498e-010 -2.90554 0.965183 -0.102902 1.49903e-009 2.50579e-009 3.59495e-010 -10.2786 0.731801 -0.0259123 1.49903e-009 2.50579e-009 3.59489e-010 -2.22167 -0.733487 0.20892 -2.03217e-016 0 -3.88251e-019 -153.915 -73.9358 -171.726 -173.966 79.1781 175.531 -13.0699 -24.3312 -19.7883 2.03217e-016 0 3.88251e-019 135.025 -68.0613 144.386 172.048 80.521 -171.912 -9.57283 -27.4705 -14.8644 
47.7577 53.1599 147.085 -1.13615 -32.3593 -176.894 -5.84721 66.0164 5.90759 1.67524 -18.8888 2.7693 -6.46998 -0.422698 -5.90098 11.3657 -50.7837 -0.129551 -0 0 0 -0 0 0 -6.35056e-014 -5.51036e-013 -1.76763e-014 8.21598 20.0331 36.8248 -26.8527 -25.8584 60.6366 -0.269338 14.5925 2.09702 -1.53625e-009 2.41501e-009 -2.26808e-009 -2.67689e-009 4.14731e-009 -3.90162e-009 -1.53625e-009 2.41501e-009 -2.26808e-009 7.73091 5.47488 0.417314 -1.53625e-009 2.41501e-009 -2.26807e-009 2.90554 0.965183 0.102902 -1.53624e-009 2.41501e-009 -2.26808e-009 10.2786 0.731801 0.0259123 -1.53625e-009 2.41502e-009 -2.26807e-009 2.22167 -0.733487 -0.20892 -6.35514e-014 -5.51039e-013 -1.78999e-014 -26.1337 16.8195 -35.9833 27.9565 -30.2956 -67.5886 2.38108 -39.5682 6.6563 2.11127e-009 2.3585e-009 -1.1037e-009 3.66033e-009 4.13415e-009 -1.83669e-009 2.11126e-009 2.35851e-009 -1.10369e-009 -7.73091 5.47488 -0.417314 2.11127e-009 2.35851e-009 -1.1037e-009 -2.90554 0.965183 -0.102902 2.11126e-009 2.35851e-009 -1.1037e-009 -10.2786 0.731801 -0.0259123 2.11127e-009 2.35851e-009 -1.10371e-009 -2.22167 -0.733487 0.20892 -2.03217e-016 0 -3.88251e-019 -154.286 -73.8396 -172.113 -173.905 79.3145 175.473 -13.1048 -24.4936 -19.788 2.03217e-016 0 3.88251e-019 135.305 -67.9355 144.698 171.964 80.6252 -171.817 -9.8069 -27.4507 -15.224 
47.7924 53.2922 147.009 -1.1838 -32.7573 -177.049 -5.84604 66.4699 6.06099 1.70151 -18.8734 2.82568 -6.3424 -0.608845 -6.01797 11.0095 -50.3565 -0.31705 -0 0 0 -0 0 0 -3.41787e-014 -6.93907e-013 -1.02436e-014 8.6484 21.8653 36.0235 -26.6435 -25.2116 59.5897 -0.266511 14.4801 2.08046 -3.79201e-009 2.07142e-009 -2.70972e-009 -6.58053e-009 3.53623e-009 -4.64088e-009 -3.79201e-009 2.07142e-009 -2.70973e-009 7.73091 5.47488 0.417314 -3.79202e-009 2.07142e-009 -2.70972e-009 2.90554 0.965183 0.102902 -3.79201e-009 2.07142e-009 -2.70972e-009 10.2786 0.731801 0.0259123 -3.79201e-009 2.07142e-009 -2.70972e-009 2.22167 -0.733487 -0.20892 -3.42179e-014 -6.93908e-013 -1.04983e-014 -26.0939 19.8161 -35.2035 27.7473 -29.1946 -65.7653 1.99922 -36.9498 6.0497 2.39008e-009 9.02363e-010 -3.24327e-009 4.19619e-009 1.65032e-009 -5.52687e-009 2.39007e-009 9.02368e-010 -3.24326e-009 -7.73091 5.47488 -0.417314 2.39007e-009 9.02364e-010 -3.24328e-009 -2.90554 0.965183 -0.102902 2.39007e-009 9.02368e-010 -3.24327e-009 -10.2786 0.731801 -0.0259123 2.39008e-009 9.02367e-010 -3.24328e-009 -2.22167 -0.733487 0.20892 -2.03217e-016 0 -3.88251e-019 -154.773 -73.7411 -172.551 -173.824 79.487 175.394 -13.1219 -24.6844 -19.7549 2.03217e-016 0 3.88251e-019 135.741 -67.8685 145.158 171.845 80.7731 -171.686 -10.0636 -27.4751 -15.6054 
47.8044 53.4363 146.917 -1.23007 -33.1834 -177.208 -5.85969 66.882 6.19767 1.71681 -18.8442 2.87144 -6.2051 -0.784986 -6.02962 10.5911 -49.9556 -0.609674 -0 0 0 -0 0 0 -4.34669e-015 -7.9476e-013 5.8393e-015 8.92108 23.738 35.2211 -26.4218 -24.5669 58.5635 -0.255878 14.1892 2.03691 -5.80002e-009 1.51885e-009 -2.92372e-009 -1.00537e-008 2.56873e-009 -4.98963e-009 -5.80001e-009 1.51885e-009 -2.92373e-009 7.73091 5.47488 0.417314 -5.80002e-009 1.51885e-009 -2.92371e-009 2.90554 0.965183 0.102902 -5.80001e-009 1.51885e-009 -2.92371e-009 10.2786 0.731801 0.0259123 -5.80002e-009 1.51885e-009 -2.92371e-009 2.22167 -0.733487 -0.20892 -4.38926e-015 -7.94759e-013 5.55665e-015 -26.0809 22.7753 -34.4182 27.4788 -28.0493 -64.0051 1.69295 -34.4044 5.51202 2.41175e-009 -8.53438e-010 -5.26336e-009 4.28645e-009 -1.36393e-009 -9.01918e-009 2.41174e-009 -8.53436e-010 -5.26335e-009 -7.73091 5.47488 -0.417314 2.41174e-009 -8.53444e-010 -5.26338e-009 -2.90554 0.965183 -0.102902 2.41174e-009 -8.53438e-010 -5.26336e-009 -10.2786 0.731801 -0.0259123 2.41175e-009 -8.53439e-010 -5.26338e-009 -2.22167 -0.733487 0.20892 -2.03217e-016 0 -3.88251e-019 -155.31 -73.6413 -173.026 -173.723 79.6935 175.294 -13.1354 -24.8629 -19.7253 2.03217e-016 0 3.88251e-019 136.212 -67.8117 145.654 171.694 80.9568 -171.525 -10.3055 -27.5091 -15.9626 
47.8236 53.5865 146.843 -1.27242 -33.6355 -177.329 -5.94442 67.2585 6.31727 1.69849 -18.7594 2.89623 -6.11741 -0.967529 -5.79603 10.118 -49.628 -1.11918 -0 0 0 -0 0 0 1.17556e-014 -8.26945e-013 2.43014e-014 8.9384 25.6981 34.5251 -26.2002 -23.9594 57.6121 -0.23273 13.6105 1.95002 -6.80148e-009 1.10088e-009 -2.93184e-009 -1.17847e-008 1.84178e-009 -4.99385e-009 -6.80147e-009 1.10089e-009 -2.93185e-009 7.73091 5.47488 0.417314 -6.80148e-009 1.10088e-009 -2.93184e-009 2.90554 0.965183 0.102902 -6.80147e-009 1.10088e-009 -2.93184e-009 10.2786 0.731801 0.0259123 -6.80148e-009 1.10088e-009 -2.93183e-009 2.22167 -0.733487 -0.20892 1.17017e-014 -8.26943e-013 2.40032e-014 -26.1029 25.3538 -33.5542 27.199 -27.0267 -62.516 1.5334 -32.8279 5.20211 2.25256e-009 -1.89971e-009 -6.36814e-009 4.04177e-009 -3.16568e-009 -1.09342e-008 2.25255e-009 -1.89971e-009 -6.36813e-009 -7.73091 5.47488 -0.417314 2.25255e-009 -1.89972e-009 -6.36817e-009 -2.90554 0.965183 -0.102902 2.25256e-009 -1.89971e-009 -6.36814e-009 -10.2786 0.731801 -0.0259123 2.25257e-009 -1.89971e-009 -6.36816e-009 -2.22167 -0.733487 0.20892 -2.03217e-016 0 -3.88251e-019 -155.834 -73.5409 -173.525 -173.601 79.9319 175.173 -13.1603 -24.988 -19.7354 2.03217e-016 0 3.88251e-019 136.595 -67.7177 146.069 171.516 81.1684 -171.339 -10.494 -27.5189 -16.249 
47.8753 53.7714 146.764 -1.30735 -34.1247 -177.398 -6.14048 67.6028 6.40262 1.62407 -18.5791 2.88834 -6.08808 -1.18889 -5.13089 9.51285 -49.4109 -2.01008 -0 0 0 -0 0 0 7.46124e-015 -7.48651e-013 5.1877e-014 8.46792 27.7366 34.0268 -25.9972 -23.428 56.7889 -0.188361 12.4418 1.77578 -6.24605e-009 8.75735e-010 -2.63628e-009 -1.08212e-008 1.46009e-009 -4.49081e-009 -6.24604e-009 8.75737e-010 -2.63629e-009 7.73091 5.47488 0.417314 -6.24605e-009 8.75736e-010 -2.63628e-009 2.90554 0.965183 0.102902 -6.24604e-009 8.75736e-010 -2.63628e-009 10.2786 0.731801 0.0259123 -6.24605e-009 8.75735e-010 -2.63627e-009 2.22167 -0.733487 -0.20892 7.38131e-015 -7.48648e-013 5.15854e-014 -26.0718 27.3101 -32.5389 26.9646 -26.2423 -61.3646 1.52894 -32.731 5.18643 1.76989e-009 -1.9143e-009 -6.09325e-009 3.20471e-009 -3.20503e-009 -1.04731e-008 1.76988e-009 -1.91429e-009 -6.09324e-009 -7.73091 5.47488 -0.417314 1.76987e-009 -1.9143e-009 -6.09327e-009 -2.90554 0.965183 -0.102902 1.76988e-009 -1.9143e-009 -6.09325e-009 -10.2786 0.731801 -0.0259123 1.76989e-009 -1.9143e-009 -6.09327e-009 -2.22167 -0.733487 0.20892 -2.03217e-016 0 -3.88251e-019 -156.401 -73.4366 -174.116 -173.454 80.2068 175.029 -13.2148 -25.0424 -19.8187 2.03217e-016 0 3.88251e-019 136.869 -67.5657 146.38 171.305 81.4099 -171.125 -10.6091 -27.4907 -16.4407 
47.9452 53.9482 146.686 -1.33602 -34.6482 -177.437 -6.40621 67.9114 6.45649 1.5114 -18.335 2.85642 -6.08149 -1.43125 -4.15836 8.8 -49.2625 -3.17623 -0 0 0 -0 0 0 -8.68098e-015 -5.85658e-013 8.91083e-014 7.61432 29.8305 33.6578 -25.8101 -22.9555 56.0432 -0.138211 10.832 1.53937 -4.65441e-009 6.713e-010 -2.05996e-009 -8.06357e-009 1.12345e-009 -3.51432e-009 -4.6544e-009 6.71302e-010 -2.05997e-009 7.73091 5.47488 0.417314 -4.65441e-009 6.71301e-010 -2.05996e-009 2.90554 0.965183 0.102902 -4.6544e-009 6.71301e-010 -2.05996e-009 10.2786 0.731801 0.0259123 -4.65441e-009 6.71301e-010 -2.05996e-009 2.22167 -0.733487 -0.20892 -8.80023e-015 -5.85657e-013 8.88381e-014 -26.003 28.8489 -31.3722 26.7724 -25.6233 -60.3918 1.61629 -33.5479 5.34939 9.77353e-010 -1.45311e-009 -4.94718e-009 1.8119e-009 -2.43992e-009 -8.51524e-009 9.77347e-010 -1.45311e-009 -4.94717e-009 -7.73091 5.47488 -0.417314 9.77346e-010 -1.45312e-009 -4.9472e-009 -2.90554 0.965183 -0.102902 9.77347e-010 -1.45311e-009 -4.94718e-009 -10.2786 0.731801 -0.0259123 9.77356e-010 -1.45311e-009 -4.94719e-009 -2.22167 -0.733487 0.20892 -2.03217e-016 0 -3.88251e-019 -157.018 -73.3282 -174.779 -173.277 80.5175 174.856 -13.2864 -25.05 -19.9479 2.03217e-016 0 3.88251e-019 137.093 -67.3842 146.645 171.053 81.6841 -170.872 -10.6741 -27.4447 -16.5662 
48.0113 54.1603 146.598 -1.36203 -35.1836 -177.463 -6.67672 68.1792 6.51006 1.39805 -18.0934 2.82049 -6.09528 -1.63535 -3.20431 8.14 -49.1163 -4.32326 -0 0 0 -0 0 0 -2.80819e-014 -4.12707e-013 1.20437e-013 6.79283 32.0089 33.2891 -25.6186 -22.4902 55.2742 -0.10387 9.3487 1.32492 -2.87433e-009 4.85658e-010 -1.40578e-009 -4.97951e-009 8.21387e-010 -2.40517e-009 -2.87432e-009 4.85659e-010 -1.40578e-009 7.73091 5.47488 0.417314 -2.87433e-009 4.85659e-010 -1.40578e-009 2.90554 0.965183 0.102902 -2.87432e-009 4.85659e-010 -1.40578e-009 10.2786 0.731801 0.0259123 -2.87433e-009 4.85659e-010 -1.40578e-009 2.22167 -0.733487 -0.20892 -2.82397e-014 -4.12707e-013 1.20186e-013 -26.0676 30.2954 -30.0785 26.5934 -25.0689 -59.4525 1.73023 -34.5617 5.55616 1.85682e-010 -8.24072e-010 -3.59336e-009 4.15102e-010 -1.38915e-009 -6.19836e-009 1.85678e-010 -8.24072e-010 -3.59336e-009 -7.73091 5.47488 -0.417314 1.8568e-010 -8.24074e-010 -3.59337e-009 -2.90554 0.965183 -0.102902 1.85677e-010 -8.24072e-010 -3.59336e-009 -10.2786 0.731801 -0.0259123 1.85685e-010 -8.24072e-010 -3.59338e-009 -2.22167 -0.733487 0.20892 -2.03217e-016 0 -3.88251e-019 -157.551 -73.2228 -175.378 -173.071 80.8541 174.652 -13.3437 -25.0316 -20.0676 2.03217e-016 0 3.88251e-019 137.271 -67.2008 146.87 170.759 81.984 -170.579 -10.715 -27.399 -16.6574 
